<svg xmlns="http://www.w3.org/2000/svg" width="153" height="155" viewBox="0 0 153 155">
<g>
<path d="M 120.92 137.87 C118.49,140.58 116.17,142.84 115.78,142.90 C115.38,142.95 114.31,141.54 113.39,139.75 C112.48,137.96 110.51,134.25 109.01,131.50 C98.32,111.86 98.00,111.13 98.00,106.72 C98.00,102.68 98.45,101.85 102.96,97.64 C105.91,94.87 108.85,93.00 110.24,93.00 C112.23,93.00 145.49,104.95 148.24,106.65 C148.77,106.98 146.63,109.84 143.49,113.01 C137.78,118.78 137.78,118.78 134.98,117.17 C132.54,115.77 131.84,115.75 129.56,116.97 C127.26,118.20 126.74,118.17 125.31,116.73 C124.01,115.44 123.92,114.80 124.87,113.65 C125.88,112.44 124.93,111.76 119.03,109.44 C115.16,107.92 111.74,106.92 111.44,107.22 C111.15,107.52 112.37,110.74 114.17,114.38 C116.61,119.35 117.84,120.87 119.07,120.48 C121.58,119.68 123.39,122.40 122.04,124.93 C121.14,126.60 121.35,127.56 123.13,129.97 L 125.33 132.94 ZM 61.45 130.50 C58.29,139.30 55.43,146.81 55.10,147.20 C54.77,147.58 51.92,145.41 48.76,142.37 L 43.02 136.85 L 44.58 133.84 C46.02,131.06 46.01,130.66 44.42,128.91 C42.78,127.10 42.78,126.90 44.50,125.00 C45.89,123.46 46.62,123.27 47.68,124.15 C48.43,124.77 49.18,125.11 49.35,124.89 C50.00,124.06 54.70,110.00 54.34,110.00 C54.12,110.00 50.76,111.61 46.85,113.58 C41.64,116.20 40.05,117.45 40.86,118.26 C42.69,120.09 39.30,123.20 37.03,121.79 C35.18,120.63 33.87,120.97 30.42,123.49 C28.47,124.92 28.02,124.73 23.03,120.20 L 17.71 115.39 L 34.20 106.20 C54.06,95.12 56.39,94.70 62.85,100.97 C67.13,105.12 68.58,108.50 67.71,112.27 C67.42,113.50 64.61,121.70 61.45,130.50 ZM 127.05 53.42 C107.84,64.09 106.04,64.32 98.86,57.14 C95.44,53.72 94.00,51.48 94.00,49.58 C94.00,47.06 105.53,13.44 106.98,11.73 C107.34,11.31 110.25,13.37 113.43,16.31 L 119.23 21.66 L 117.54 24.92 C115.95,27.99 115.96,28.29 117.58,30.09 C119.22,31.90 119.22,32.10 117.50,34.00 C116.19,35.44 115.35,35.71 114.44,34.95 C112.89,33.66 112.66,34.01 109.49,42.44 C108.13,46.05 107.48,49.00 108.04,49.00 C109.52,49.00 120.75,43.21 121.44,42.09 C121.77,41.57 121.55,40.84 120.95,40.47 C120.23,40.02 120.45,39.16 121.60,37.89 C123.12,36.21 123.58,36.15 125.45,37.37 C127.31,38.60 127.86,38.54 129.90,36.88 C131.18,35.85 132.86,35.00 133.63,35.00 C135.60,35.00 144.26,43.15 143.29,44.09 C142.85,44.51 135.55,48.71 127.05,53.42 ZM 59.14 61.14 C53.93,66.36 50.86,67.17 46.00,64.60 C44.62,63.88 36.61,60.67 28.18,57.47 L 12.87 51.65 L 23.94 40.58 L 27.54 41.88 C30.65,43.00 31.38,42.96 32.91,41.58 C34.54,40.11 34.82,40.15 36.55,42.05 C38.13,43.80 38.20,44.26 36.99,45.01 C36.20,45.49 35.77,46.10 36.03,46.36 C36.84,47.16 50.29,52.05 50.66,51.67 C51.01,51.33 45.24,37.98 44.34,37.03 C44.09,36.77 43.48,37.22 42.98,38.03 C42.19,39.31 41.86,39.29 40.45,37.88 C39.08,36.50 39.03,35.93 40.13,34.17 C41.26,32.35 41.13,31.66 39.12,28.95 L 36.80 25.81 L 39.65 22.66 C39.88,22.41 40.09,22.17 40.30,21.94 C44.25,17.56 45.56,16.11 46.45,16.33 C46.94,16.45 47.31,17.07 47.92,17.98 C48.79,19.28 52.76,26.57 56.75,34.17 C65.98,51.78 66.19,54.10 59.14,61.14 Z" fill="rgb(63,87,129)"/>
<path d="M 75.22 145.24 C74.39,148.48 74.33,148.50 67.57,148.80 L 60.76 149.10 L 61.22 146.30 C61.87,142.41 67.91,121.45 69.92,116.08 C72.03,110.46 75.56,107.83 81.68,107.30 C87.40,106.81 92.85,109.20 94.64,113.00 C98.57,121.30 107.98,142.86 108.51,144.75 C109.12,146.95 108.95,147.00 101.04,147.00 C94.20,147.00 92.85,146.73 92.40,145.25 C91.32,141.78 90.24,140.50 88.39,140.50 C86.22,140.50 85.18,136.42 86.92,134.68 C88.47,133.13 88.27,131.56 85.92,126.55 C83.27,120.91 81.58,121.47 79.28,128.77 C77.94,133.03 77.82,134.44 78.76,134.75 C80.70,135.40 80.21,139.39 78.03,140.75 C76.95,141.42 75.68,143.45 75.22,145.24 ZM 149.61 86.43 C149.88,87.13 149.97,90.37 149.80,93.62 C149.48,100.02 149.23,100.18 143.00,98.02 C141.62,97.55 135.55,95.71 129.50,93.94 C111.12,88.57 109.08,86.91 109.03,77.33 C108.99,70.07 111.38,66.35 117.49,64.14 C119.53,63.40 125.32,60.86 130.35,58.50 C145.55,51.38 147.24,50.78 148.16,52.23 C148.61,52.93 148.98,56.30 148.98,59.72 C149.00,65.65 148.86,66.02 145.96,67.52 C144.28,68.39 142.49,70.20 141.98,71.55 C141.33,73.26 140.28,74.00 138.52,74.00 C137.14,74.00 136.00,73.55 136.00,73.00 C136.00,72.45 135.18,72.00 134.19,72.00 C131.28,72.00 124.00,75.91 124.00,77.47 C124.00,79.42 135.17,83.00 135.75,81.24 C136.49,79.04 141.43,79.78 142.51,82.25 C143.13,83.66 144.55,84.62 146.31,84.82 C147.85,85.00 149.34,85.72 149.61,86.43 ZM 34.00 99.21 C25.48,103.08 17.26,106.46 15.75,106.73 L 13.00 107.23 L 13.00 99.56 C13.00,91.94 13.02,91.89 16.01,90.85 C17.87,90.20 19.24,88.89 19.61,87.40 C20.07,85.58 20.89,85.00 23.03,85.00 C24.57,85.00 26.01,85.54 26.24,86.21 C26.71,87.63 35.13,84.76 36.97,82.54 C38.29,80.95 37.40,80.19 32.00,78.27 C27.75,76.76 25.00,76.66 25.00,78.00 C25.00,79.95 20.48,79.01 19.49,76.86 C18.94,75.68 16.92,74.21 15.00,73.61 C11.58,72.52 11.49,72.37 11.20,66.60 C11.03,63.36 11.30,60.30 11.81,59.79 C12.94,58.66 44.45,68.31 48.00,70.88 C51.48,73.40 52.97,76.73 52.98,82.00 C53.00,89.80 51.24,91.39 34.00,99.21 ZM 88.21 48.16 C86.02,50.77 85.26,51.00 79.05,51.00 C73.70,51.00 71.71,50.56 69.63,48.93 C68.19,47.79 67.00,46.41 67.00,45.86 C67.00,45.31 64.04,38.71 60.43,31.18 C56.82,23.66 53.62,16.30 53.32,14.83 C52.81,12.31 53.05,12.12 57.30,11.48 C64.01,10.47 68.05,11.66 69.31,15.02 C70.02,16.90 71.30,18.01 73.19,18.39 C76.29,19.01 77.19,22.60 74.50,23.64 C73.68,23.95 73.03,24.95 73.06,25.86 C73.15,28.26 77.30,36.29 78.69,36.74 C79.42,36.98 80.66,34.63 81.84,30.81 C83.45,25.61 83.54,24.44 82.39,24.18 C80.19,23.66 80.72,19.43 83.13,18.35 C84.31,17.83 85.77,15.85 86.38,13.95 C87.50,10.51 87.53,10.50 94.25,10.20 C98.64,10.01 101.00,10.29 101.00,11.00 C101.00,11.60 99.91,15.56 98.57,19.80 C97.24,24.03 94.90,31.51 93.38,36.41 C91.85,41.31 89.53,46.59 88.21,48.16 Z" fill="rgb(245,207,29)"/>
<path d="M 0.00 77.50 L 0.00 0.00 L 76.50 0.00 L 153.00 0.00 L 153.00 77.50 L 153.00 155.00 L 76.50 155.00 L 0.00 155.00 L 0.00 77.50 ZM 75.22 145.24 C75.68,143.45 76.95,141.42 78.03,140.75 C80.21,139.39 80.70,135.40 78.76,134.75 C77.82,134.44 77.94,133.03 79.28,128.77 C81.58,121.47 83.27,120.91 85.92,126.55 C88.27,131.56 88.47,133.13 86.92,134.68 C85.18,136.42 86.22,140.50 88.39,140.50 C90.24,140.50 91.32,141.78 92.40,145.25 C92.85,146.73 94.20,147.00 101.04,147.00 C108.95,147.00 109.12,146.95 108.51,144.75 C107.98,142.86 98.57,121.30 94.64,113.00 C92.85,109.20 87.40,106.81 81.68,107.30 C75.56,107.83 72.03,110.46 69.92,116.08 C67.91,121.45 61.87,142.41 61.22,146.30 L 60.76 149.10 L 67.57 148.80 C74.33,148.50 74.39,148.48 75.22,145.24 ZM 61.45 130.50 C64.61,121.70 67.42,113.50 67.71,112.27 C68.58,108.50 67.13,105.12 62.85,100.97 C56.39,94.70 54.06,95.12 34.20,106.20 L 17.71 115.39 L 23.03 120.20 C28.02,124.73 28.47,124.92 30.42,123.49 C33.87,120.97 35.18,120.63 37.03,121.79 C39.30,123.20 42.69,120.09 40.86,118.26 C40.05,117.45 41.64,116.20 46.85,113.58 C50.76,111.61 54.12,110.00 54.34,110.00 C54.70,110.00 50.00,124.06 49.35,124.89 C49.18,125.11 48.43,124.77 47.68,124.15 C46.62,123.27 45.89,123.46 44.50,125.00 C42.78,126.90 42.78,127.10 44.42,128.91 C46.01,130.66 46.02,131.06 44.58,133.84 L 43.02 136.85 L 48.76 142.37 C51.92,145.41 54.77,147.58 55.10,147.20 C55.43,146.81 58.29,139.30 61.45,130.50 ZM 120.92 137.87 L 125.33 132.94 L 123.13 129.97 C121.35,127.56 121.14,126.60 122.04,124.93 C123.39,122.40 121.58,119.68 119.07,120.48 C117.84,120.87 116.61,119.35 114.17,114.38 C112.37,110.74 111.15,107.52 111.44,107.22 C111.74,106.92 115.16,107.92 119.03,109.44 C124.93,111.76 125.88,112.44 124.87,113.65 C123.92,114.80 124.01,115.44 125.31,116.73 C126.74,118.17 127.26,118.20 129.56,116.97 C131.84,115.75 132.54,115.77 134.98,117.17 C137.78,118.78 137.78,118.78 143.49,113.01 C146.63,109.84 148.77,106.98 148.24,106.65 C145.49,104.95 112.23,93.00 110.24,93.00 C108.85,93.00 105.91,94.87 102.96,97.64 C98.45,101.85 98.00,102.68 98.00,106.72 C98.00,111.13 98.32,111.86 109.01,131.50 C110.51,134.25 112.48,137.96 113.39,139.75 C114.31,141.54 115.38,142.95 115.78,142.90 C116.17,142.84 118.49,140.58 120.92,137.87 ZM 34.00 99.21 C51.24,91.39 53.00,89.80 52.98,82.00 C52.97,76.73 51.48,73.40 48.00,70.88 C44.45,68.31 12.94,58.66 11.81,59.79 C11.30,60.30 11.03,63.36 11.20,66.60 C11.49,72.37 11.58,72.52 15.00,73.61 C16.92,74.21 18.94,75.68 19.49,76.86 C20.48,79.01 25.00,79.95 25.00,78.00 C25.00,76.66 27.75,76.76 32.00,78.27 C37.40,80.19 38.29,80.95 36.97,82.54 C35.13,84.76 26.71,87.63 26.24,86.21 C26.01,85.54 24.57,85.00 23.03,85.00 C20.89,85.00 20.07,85.58 19.61,87.40 C19.24,88.89 17.87,90.20 16.01,90.85 C13.02,91.89 13.00,91.94 13.00,99.56 L 13.00 107.23 L 15.75 106.73 C17.26,106.46 25.48,103.08 34.00,99.21 ZM 149.61 86.43 C149.34,85.72 147.85,85.00 146.31,84.82 C144.55,84.62 143.13,83.66 142.51,82.25 C141.43,79.78 136.49,79.04 135.75,81.24 C135.17,83.00 124.00,79.42 124.00,77.47 C124.00,75.91 131.28,72.00 134.19,72.00 C135.18,72.00 136.00,72.45 136.00,73.00 C136.00,73.55 137.14,74.00 138.52,74.00 C140.28,74.00 141.33,73.26 141.98,71.55 C142.49,70.20 144.28,68.39 145.96,67.52 C148.86,66.02 149.00,65.65 148.98,59.72 C148.98,56.30 148.61,52.93 148.16,52.23 C147.24,50.78 145.55,51.38 130.35,58.50 C125.32,60.86 119.53,63.40 117.49,64.14 C111.38,66.35 108.99,70.07 109.03,77.33 C109.08,86.91 111.12,88.57 129.50,93.94 C135.55,95.71 141.62,97.55 143.00,98.02 C149.23,100.18 149.48,100.02 149.80,93.62 C149.97,90.37 149.88,87.13 149.61,86.43 ZM 59.14 61.14 C66.19,54.10 65.98,51.78 56.75,34.17 C52.76,26.57 48.79,19.28 47.92,17.98 C46.14,15.32 46.43,15.15 39.65,22.66 L 36.80 25.81 L 39.12 28.95 C41.13,31.66 41.26,32.35 40.13,34.17 C39.03,35.93 39.08,36.50 40.45,37.88 C41.86,39.29 42.19,39.31 42.98,38.03 C43.48,37.22 44.09,36.77 44.34,37.03 C45.24,37.98 51.01,51.33 50.66,51.67 C50.29,52.05 36.84,47.16 36.03,46.36 C35.77,46.10 36.20,45.49 36.99,45.01 C38.20,44.26 38.13,43.80 36.55,42.05 C34.82,40.15 34.54,40.11 32.91,41.58 C31.38,42.96 30.65,43.00 27.54,41.88 L 23.94 40.58 L 18.41 46.12 L 12.87 51.65 L 28.18 57.47 C36.61,60.67 44.62,63.88 46.00,64.60 C50.86,67.17 53.93,66.36 59.14,61.14 ZM 127.05 53.42 C135.55,48.71 142.85,44.51 143.29,44.09 C144.26,43.15 135.60,35.00 133.63,35.00 C132.86,35.00 131.18,35.85 129.90,36.88 C127.86,38.54 127.31,38.60 125.45,37.37 C123.58,36.15 123.12,36.21 121.60,37.89 C120.45,39.16 120.23,40.02 120.95,40.47 C121.55,40.84 121.77,41.57 121.44,42.09 C120.75,43.21 109.52,49.00 108.04,49.00 C107.48,49.00 108.13,46.05 109.49,42.44 C112.66,34.01 112.89,33.66 114.44,34.95 C115.35,35.71 116.19,35.44 117.50,34.00 C119.22,32.10 119.22,31.90 117.58,30.09 C115.96,28.29 115.95,27.99 117.54,24.92 L 119.23 21.66 L 113.43 16.31 C110.25,13.37 107.34,11.31 106.98,11.73 C105.53,13.44 94.00,47.06 94.00,49.58 C94.00,51.48 95.44,53.72 98.86,57.14 C106.04,64.32 107.84,64.09 127.05,53.42 ZM 88.21 48.16 C89.53,46.59 91.85,41.31 93.38,36.41 C94.90,31.51 97.24,24.03 98.57,19.80 C99.91,15.56 101.00,11.60 101.00,11.00 C101.00,10.29 98.64,10.01 94.25,10.20 C87.53,10.50 87.50,10.51 86.38,13.95 C85.77,15.85 84.31,17.83 83.13,18.35 C80.72,19.43 80.19,23.66 82.39,24.18 C83.54,24.44 83.45,25.61 81.84,30.81 C80.66,34.63 79.42,36.98 78.69,36.74 C77.30,36.29 73.15,28.26 73.06,25.86 C73.03,24.95 73.68,23.95 74.50,23.64 C77.19,22.60 76.29,19.01 73.19,18.39 C71.30,18.01 70.02,16.90 69.31,15.02 C68.05,11.66 64.01,10.47 57.30,11.48 C53.05,12.12 52.81,12.31 53.32,14.83 C53.62,16.30 56.82,23.66 60.43,31.18 C64.04,38.71 67.00,45.31 67.00,45.86 C67.00,46.41 68.19,47.79 69.63,48.93 C71.71,50.56 73.70,51.00 79.05,51.00 C85.26,51.00 86.02,50.77 88.21,48.16 Z" fill="rgb(250,251,244)"/>
</g>
</svg>